# xmcd
#
# Track frame offsets:
#	150
#	40380
#	46594
#	62678
#	92479
#	119660
#	146123
#	153180
#	175453
#	196494
#
# Disc length: 2928 seconds
#
# Revision: 0
# Processed by: cddbd v1.5.2PL0 Copyright (c) Steve Scherf et al.
# Submitted via: dBpowerAMP V4.0
#
DISCID=890b6e0a
DTITLE=Marvin Gaye - Live in Miami Vol 2
DYEAR=1900
DGENRE=Blues
TTITLE0=Got to give it up
TTITLE1=After the dance
TTITLE2=Come get to this
TTITLE3=Let's get it on
TTITLE4=After the dance 2
TTITLE5=If this world where mine
TTITLE6=Ain't no mountain high enough
TTITLE7=How sweet it is to be loved by you
TTITLE8=I want you
TTITLE9=Inner city blues
EXTD=
EXTT0=
EXTT1=
EXTT2=
EXTT3=
EXTT4=
EXTT5=
EXTT6=
EXTT7=
EXTT8=
EXTT9=
PLAYORDER=
